<svg width="42" height="42" viewBox="0 0 42 42" fill="none" xmlns="http://www.w3.org/2000/svg">
<circle cx="21" cy="21" r="20.5" fill="#D9D9D9" stroke="black"/>
<circle cx="21" cy="21" r="20" fill="#E9E9E9"/>
<path d="M30 14.8186C30 13.3212 28.6788 12 27.1813 12H15.8186C14.3212 12 13 13.3212 13 14.8186V26.1813C13 27.6787 14.3212 29 15.8186 29H21.544V22.5699H19.4301V19.7513H21.544V18.6062C21.544 16.6684 22.9534 14.9948 24.715 14.9948H27.0052V17.8135H24.715C24.4508 17.8135 24.1865 18.0777 24.1865 18.6062V19.7513H27.0052V22.5699H24.1865V29H27.1813C28.6788 29 30 27.6787 30 26.1813V14.8186Z" fill="black"/>
</svg>
