<svg width="42" height="42" viewBox="0 0 42 42" fill="none" xmlns="http://www.w3.org/2000/svg">
<circle cx="21" cy="21" r="20.5" fill="#D9D9D9" stroke="black"/>
<circle cx="21" cy="21" r="20" fill="url(#paint0_linear_25_14)"/>
<path d="M27.5808 13H15.4192C14.0462 13 13 14.0462 13 15.4192V27.5808C13 28.9538 14.0462 30 15.4192 30H27.5808C28.9538 30 30 28.9538 30 27.5808V15.4192C30 14.0462 28.9538 13 27.5808 13ZM21.5 26.6C24.3115 26.6 26.6 24.3769 26.6 21.6962C26.6 21.2385 26.5346 20.7154 26.4038 20.3231H27.8423V27.2538C27.8423 27.5808 27.5808 27.9077 27.1885 27.9077H15.8115C15.4846 27.9077 15.1577 27.6462 15.1577 27.2538V20.2577H16.6615C16.5308 20.7154 16.4654 21.1731 16.4654 21.6308C16.4 24.3769 18.6885 26.6 21.5 26.6ZM21.5 24.6385C19.6692 24.6385 18.2308 23.2 18.2308 21.4346C18.2308 19.6692 19.6692 18.2308 21.5 18.2308C23.3308 18.2308 24.7692 19.6692 24.7692 21.4346C24.7692 23.2654 23.3308 24.6385 21.5 24.6385ZM27.7769 17.6423C27.7769 18.0346 27.45 18.3615 27.0577 18.3615H25.2269C24.8346 18.3615 24.5077 18.0346 24.5077 17.6423V15.8769C24.5077 15.4846 24.8346 15.1577 25.2269 15.1577H27.0577C27.45 15.1577 27.7769 15.4846 27.7769 15.8769V17.6423Z" fill="black"/>
<defs>
<linearGradient id="paint0_linear_25_14" x1="9.5" y1="36.5" x2="36" y2="9" gradientUnits="userSpaceOnUse">
<stop stop-color="#E9E9E9"/>
<stop offset="0.502762" stop-color="#E9E9E9"/>
<stop offset="1" stop-color="#E9E9E9"/>
</linearGradient>
</defs>
</svg>
