<svg width="42" height="42" viewBox="0 0 42 42" fill="none" xmlns="http://www.w3.org/2000/svg">
<circle cx="21" cy="21" r="20.5" fill="#D9D9D9" stroke="black"/>
<circle cx="21" cy="21" r="20" fill="#E9E9E9"/>
<path d="M27.5808 15.1577C26.0116 13.7192 24.1154 13 21.7615 13C19.3423 13 17.25 13.7846 15.55 15.4192C13.85 17.0538 13 19.0808 13 21.5C13 23.8538 13.7846 25.8154 15.4192 27.5154C17.0539 29.2154 19.2116 30 22.0231 30C23.6577 30 25.2923 29.6731 26.9269 28.9538C27.45 28.7577 27.7115 28.1038 27.5154 27.5808C27.3192 27.0577 26.6654 26.7962 26.1423 26.9923C24.7692 27.5808 23.3962 27.9077 22.0885 27.9077C19.9962 27.9077 18.3615 27.2538 17.1846 25.9462C16.0077 24.6385 15.4192 23.1346 15.4192 21.4346C15.4192 19.5385 16.0731 17.9692 17.25 16.7269C18.4923 15.4846 19.9962 14.8308 21.8269 14.8308C23.4615 14.8308 24.9 15.3538 26.0769 16.4C27.2538 17.4462 27.7769 18.7538 27.7769 20.3231C27.7769 21.3692 27.5154 22.2846 26.9923 23.0038C26.4692 23.7231 25.9462 24.05 25.3577 24.05C25.0308 24.05 24.9 23.9192 24.9 23.5269C24.9 23.2654 24.9 22.9385 24.9654 22.6115L25.6192 17.3154H23.3962L23.2654 17.8385C22.6769 17.3808 22.0885 17.1192 21.4346 17.1192C20.3885 17.1192 19.4731 17.5769 18.6885 18.4269C17.9039 19.2769 17.5769 20.3885 17.5769 21.6962C17.5769 23.0038 17.9039 24.05 18.6231 24.9C19.2769 25.6846 20.1269 26.0769 21.0423 26.0769C21.8923 26.0769 22.6115 25.75 23.2 25.0308C23.6577 25.6846 24.3115 26.0769 25.2269 26.0769C26.5346 26.0769 27.6462 25.4885 28.6269 24.3769C29.6077 23.2654 30.0654 21.8923 30.0654 20.2577C29.8692 18.2962 29.0846 16.5308 27.5808 15.1577ZM22.4154 23.1346C22.0231 23.6577 21.5654 23.9192 20.9769 23.9192C20.5846 23.9192 20.3231 23.7231 20.0616 23.3308C19.8 22.9385 19.7346 22.4808 19.7346 21.8923C19.7346 21.1731 19.8654 20.5846 20.1923 20.1923C20.5192 19.7346 20.9116 19.5385 21.3692 19.5385C21.7616 19.5385 22.1538 19.6692 22.4808 20.0615C22.8077 20.3885 22.9385 20.8462 22.9385 21.3692C23.0039 22.0231 22.8077 22.6115 22.4154 23.1346Z" fill="black"/>
</svg>
