<svg width="42" height="42" viewBox="0 0 42 42" fill="none" xmlns="http://www.w3.org/2000/svg">
<circle cx="21" cy="21" r="20.5" fill="#D9D9D9" stroke="black"/>
<circle cx="21" cy="21" r="20" fill="#E9E9E9"/>
<path d="M10.3507 21.3741L14.9488 23.0886L16.7413 28.8557C16.8192 29.2454 17.2868 29.3233 17.5985 29.0895L20.1703 26.9853C20.4041 26.7515 20.7938 26.7515 21.1055 26.9853L25.7036 30.3364C26.0154 30.5702 26.483 30.4144 26.5609 30.0247L29.99 13.6587C30.0679 13.269 29.6782 12.8793 29.2886 13.0352L10.3507 20.3609C9.8831 20.5168 9.8831 21.2182 10.3507 21.3741ZM16.5075 22.2313L25.5477 16.6981C25.7036 16.6201 25.8595 16.8539 25.7036 16.9319L18.2999 23.868C18.0661 24.1018 17.8323 24.4135 17.8323 24.8032L17.5985 26.6736C17.5985 26.9074 17.2089 26.9853 17.1309 26.6736L16.1957 23.2445C15.9619 22.8548 16.1178 22.3872 16.5075 22.2313Z" fill="black"/>
</svg>
