<svg width="194" height="195" viewBox="0 0 194 195" fill="none" xmlns="http://www.w3.org/2000/svg">
<path fill-rule="evenodd" clip-rule="evenodd" d="M7.70845 59.6953C7.19443 60.9025 6.70691 62.1149 6.24565 63.3318L49.3121 181.656C50.4477 182.292 51.6007 182.908 52.7708 183.503L7.70845 59.6953ZM54.0714 184.153C54.2177 184.224 54.3643 184.296 54.5111 184.367C55.4797 184.836 56.4523 185.287 57.4285 185.721L9.85238 55.0064C9.79105 55.1318 9.72995 55.2573 9.66909 55.383C9.19025 56.3723 8.72979 57.3656 8.2876 58.3628L54.0714 184.153ZM25.621 31.9308C26.283 31.2133 26.9549 30.5071 27.6363 29.8125L87.2457 193.588C86.2772 193.494 85.3086 193.385 84.3404 193.261L25.621 31.9308ZM91.2059 193.889C90.2531 193.837 89.2998 193.77 88.3464 193.688L28.4149 29.0278C29.0929 28.3523 29.78 27.688 30.4759 27.035L91.2059 193.889ZM51.9015 11.8465C51.1196 12.2539 50.3429 12.672 49.5717 13.1009L114.79 192.288C115.657 192.121 116.521 191.942 117.381 191.751L51.9015 11.8465ZM118.365 191.528C119.22 191.33 120.072 191.12 120.921 190.898L55.1619 10.2252C54.369 10.6011 53.5809 10.9879 52.7979 11.3855L118.365 191.528ZM76.6856 2.96143C77.5495 2.77888 78.4162 2.60807 79.2854 2.44909L144.401 181.352C143.633 181.789 142.859 182.215 142.08 182.631L76.6856 2.96143ZM147.567 179.471C146.811 179.94 146.049 180.398 145.281 180.846L80.285 2.27167C81.161 2.12094 82.0394 1.98219 82.9199 1.85553L147.567 179.471ZM109.847 1.78327C108.875 1.64827 107.903 1.52844 106.93 1.42366L166.236 164.366C166.914 163.66 167.582 162.943 168.239 162.214L109.847 1.78327ZM168.995 161.367C169.657 160.616 170.309 159.854 170.949 159.08L113.938 2.44174C112.949 2.26066 111.96 2.09548 110.971 1.94608L168.995 161.367ZM141.593 12.0255C142.774 12.6466 143.936 13.289 145.081 13.9521L187.41 130.25C186.959 131.494 186.481 132.733 185.976 133.967L141.593 12.0255ZM189.237 124.69C188.834 126.053 188.4 127.413 187.934 128.767L146.436 14.7521C147.664 15.4903 148.87 16.2526 150.054 17.0379L189.237 124.69ZM0.998347 83.5765C0.716054 85.5172 0.494332 87.4599 0.332286 89.4019L28.0265 165.491C29.3982 166.873 30.8165 168.218 32.2802 169.523L0.998347 83.5765ZM33.8393 170.882C35.1223 171.977 36.4386 173.042 37.7876 174.075L2.29029 76.5468C1.92107 78.2053 1.59728 79.8675 1.31834 81.5319L33.8393 170.882ZM15.1655 45.5218C15.7506 44.6021 16.3494 43.695 16.9615 42.8008L70.721 190.504C69.6771 190.212 68.6354 189.902 67.5962 189.574L15.1655 45.5218ZM74.965 191.585C73.9425 191.349 72.9214 191.096 71.9022 190.825L17.6596 41.7949C18.2664 40.9322 18.8858 40.0818 19.5174 39.2438L74.965 191.585ZM39.3444 19.6631C38.609 20.2032 37.8807 20.7542 37.1597 21.3161L100.002 193.973C100.915 193.94 101.827 193.893 102.738 193.834L39.3444 19.6631ZM103.775 193.762C104.676 193.693 105.576 193.613 106.473 193.519L42.4087 17.503C41.6612 18.0085 40.9202 18.5248 40.1861 19.0519L103.775 193.762ZM62.7577 7.01192C63.5752 6.70628 64.3969 6.41168 65.2224 6.1282L131.262 187.571C130.448 187.885 129.629 188.187 128.806 188.478L62.7577 7.01192ZM134.617 186.209C133.814 186.553 133.006 186.886 132.194 187.208L66.1701 5.8082C66.9991 5.53301 67.8319 5.26898 68.6682 5.01622L134.617 186.209ZM94.1257 0.905127C93.2091 0.929203 92.2937 0.966353 91.3798 1.01648L154.587 174.676C155.319 174.127 156.044 173.567 156.762 172.996L94.1257 0.905127ZM157.585 172.334C158.304 171.748 159.016 171.152 159.72 170.544L97.9674 0.880952C97.038 0.868229 96.1094 0.869006 95.1818 0.883183L157.585 172.334ZM123.53 4.71464C124.58 5.021 125.627 5.34608 126.672 5.69003L178.615 148.404C178.036 149.339 177.443 150.261 176.836 151.171L123.53 4.71464ZM180.991 144.352C180.437 145.352 179.867 146.339 179.282 147.312L127.884 6.09832C128.958 6.46776 130.029 6.85729 131.096 7.26708L180.991 144.352ZM166.697 31.0255C165.296 29.546 163.843 28.1068 162.34 26.7106L192.429 109.379C192.683 107.343 192.87 105.306 192.992 103.27L166.697 31.0255ZM193.112 100.677C193.198 98.0614 193.177 95.4509 193.051 92.8517L173.437 38.9633C171.864 36.893 170.203 34.881 168.456 32.9334L193.112 100.677ZM0.127888 102.343C1.12279 121.628 7.89689 140.278 19.5538 155.716L0.127888 102.343ZM26.3204 163.727C24.6549 161.961 23.0625 160.138 21.5449 158.262L0.0155007 99.1109C-0.0278413 96.6969 0.0195708 94.2752 0.159478 91.8509L26.3204 163.727ZM12.1187 50.6537C11.5517 51.6791 11.001 52.7185 10.4672 53.7719L58.6933 186.272C59.7792 186.736 60.8694 187.179 61.9632 187.601L12.1187 50.6537ZM63.1969 188.066C64.2581 188.459 65.3227 188.831 66.3902 189.184L14.4922 46.5957C13.9014 47.5519 13.3254 48.5214 12.7644 49.5042L63.1969 188.066ZM31.2714 26.2969C31.9645 25.6611 32.666 25.0364 33.3757 24.4228L95.1061 194.026C94.168 194.012 93.2291 193.985 92.2897 193.943L31.2714 26.2969ZM98.9492 194.005C98.0251 194.029 97.0999 194.039 96.1738 194.035L34.1873 23.7289C34.8947 23.1309 35.6099 22.5439 36.3327 21.9678L98.9492 194.005ZM58.4692 8.73239C57.6653 9.07731 56.8659 9.43316 56.0713 9.79984L121.892 190.639C122.736 190.41 123.577 190.169 124.415 189.916L58.4692 8.73239ZM125.372 189.622C126.205 189.362 127.035 189.09 127.862 188.807L61.8227 7.36693C61.008 7.68107 60.1975 8.00623 59.3914 8.34231L125.372 189.622ZM83.9331 1.71526C84.8213 1.59707 85.7116 1.49117 86.6038 1.39763L150.683 177.454C149.939 177.956 149.189 178.447 148.433 178.927L83.9331 1.71526ZM153.749 175.297C153.018 175.833 152.28 176.358 151.535 176.872L87.6308 1.2955C88.5317 1.21078 89.4343 1.13867 90.3385 1.07925L153.749 175.297ZM118.101 3.30046C117.095 3.06974 116.089 2.85575 115.081 2.65838L171.685 158.179C172.33 157.379 172.964 156.568 173.586 155.745L118.101 3.30046ZM174.301 154.786C174.928 153.934 175.542 153.07 176.144 152.193L122.343 4.37634C121.319 4.09165 120.293 3.82467 119.265 3.57528L174.301 154.786ZM151.466 17.9919C152.755 18.8798 154.017 19.7955 155.252 20.7378L190.84 118.515C190.499 120.031 190.121 121.544 189.705 123.052L151.466 17.9919ZM192.14 111.508C191.886 113.232 191.584 114.955 191.234 116.674L156.737 21.8943C158.11 22.9856 159.448 24.1104 160.751 25.2668L192.14 111.508ZM3.88701 70.3545C3.4567 71.8198 3.06292 73.2898 2.70528 74.7631L39.2518 175.174C40.4725 176.072 41.719 176.945 42.9907 177.791L3.88701 70.3545ZM44.3866 178.702C45.56 179.454 46.7542 180.184 47.969 180.89L5.70923 64.7818C5.23243 66.1029 4.7863 67.4289 4.37053 68.7592L44.3866 178.702ZM20.238 38.2998C20.8648 37.4893 21.503 36.6906 22.1524 35.9041L79.1299 192.448C78.1268 192.264 77.1246 192.062 76.1237 191.845L20.238 38.2998ZM83.2217 193.111C82.2365 192.974 81.2518 192.82 80.2678 192.651L22.8937 35.0171C23.5388 34.2547 24.1945 33.504 24.8604 32.765L83.2217 193.111ZM45.5239 15.4826C44.7646 15.9546 44.0114 16.4373 43.2646 16.9308L107.497 193.408C108.386 193.306 109.273 193.191 110.158 193.065L45.5239 15.4826ZM111.168 192.915C112.046 192.78 112.921 192.633 113.794 192.474L48.6886 13.5982C47.9178 14.0375 47.1528 14.4876 46.3936 14.9484L111.168 192.915ZM69.6287 4.73131C70.4692 4.48668 71.3132 4.25339 72.1603 4.03151L137.925 184.719C137.134 185.094 136.337 185.457 135.536 185.81L69.6287 4.73131ZM141.187 183.101C140.407 183.506 139.622 183.901 138.831 184.285L73.1337 3.78195C73.9858 3.56815 74.8411 3.36588 75.6992 3.17521L141.187 183.101ZM101.866 1.01356C100.923 0.962288 99.9808 0.925004 99.0391 0.901602L160.527 169.84C161.234 169.216 161.932 168.582 162.621 167.936L101.866 1.01356ZM163.412 167.186C164.105 166.523 164.788 165.848 165.462 165.162L105.825 1.31109C104.868 1.21919 103.911 1.14184 102.954 1.07891L163.412 167.186ZM132.337 7.75348C133.438 8.1937 134.535 8.65566 135.628 9.13954L183.26 140.007C182.734 141.08 182.19 142.138 181.629 143.182L132.337 7.75348ZM185.407 135.327C184.917 136.472 184.404 137.613 183.866 138.749L136.901 9.71436C137.487 9.98356 138.071 10.2591 138.653 10.541C139.2 10.8057 139.743 11.0749 140.283 11.3485L185.407 135.327ZM192.809 89.2645C191.345 72.254 185.387 55.8566 175.557 41.8646L192.809 89.2645Z" fill="url(#paint0_linear_33_253)" fill-opacity="0.4"/>
<defs>
<linearGradient id="paint0_linear_33_253" x1="2.37871" y1="102.876" x2="192.325" y2="88.8517" gradientUnits="userSpaceOnUse">
<stop stop-color="#EBA43D"/>
<stop offset="0.458333" stop-color="#F17C54"/>
<stop offset="1" stop-color="#4C1D5F"/>
</linearGradient>
</defs>
</svg>
